<?xml version="1.0" encoding="utf-8"?>
<!-- Generator: Adobe Illustrator 22.0.1, SVG Export Plug-In . SVG Version: 6.00 Build 0)  -->
<svg version="1.1" id="OBJECTS" xmlns="http://www.w3.org/2000/svg" xmlns:xlink="http://www.w3.org/1999/xlink" x="0px" y="0px"
	 viewBox="0 0 77.9 76.9" style="enable-background:new 0 0 77.9 76.9;" xml:space="preserve">
<style type="text/css">
	.st0{fill:#FFFFFF;}
</style>
<g>
	<g>
		<path class="st0" d="M1.3,60.1v-5.2c0-1.5,0.7-2.2,2.2-2.2h3.9l0.7,0.6V54H3.5c-0.5,0-0.8,0.3-0.8,0.8v5.5c0,0.5,0.3,0.8,0.8,0.8
			h4.6v0.7l-0.7,0.6H3.5C2.1,62.4,1.3,61.6,1.3,60.1"/>
		<path class="st0" d="M11.6,60.3c0,0.5,0.3,0.8,0.8,0.8h3.2c0.5,0,0.8-0.3,0.8-0.8v-5.5c0-0.5-0.3-0.8-0.8-0.8h-3.2
			c-0.5,0-0.8,0.3-0.8,0.8V60.3z M10.2,60.1v-5.2c0-1.5,0.7-2.2,2.2-2.2h3.3c1.5,0,2.2,0.7,2.2,2.2v5.2c0,1.5-0.7,2.2-2.2,2.2h-3.3
			C10.9,62.4,10.2,61.6,10.2,60.1"/>
		<polygon class="st0" points="20.5,62.4 20.5,52.7 22.3,52.7 25.4,59.3 28.5,52.7 30.3,52.7 30.3,62.4 28.9,62.4 28.9,55 26.1,61 
			24.7,61 21.9,55 21.9,62.4 		"/>
		<path class="st0" d="M32.6,61.8v-0.7H37c0.5,0,0.8-0.3,0.8-0.8v-1.1c0-0.4-0.2-0.7-0.6-0.8l-2.9-0.6c-1.1-0.2-1.6-0.9-1.6-2.1
			v-0.7c0-1.5,0.7-2.2,2.2-2.2h3.3l0.7,0.6V54h-4.1c-0.5,0-0.8,0.3-0.8,0.8v0.9c0,0.4,0.2,0.7,0.6,0.8l2.9,0.6
			c1.1,0.2,1.6,0.9,1.6,2.1v0.9c0,1.5-0.7,2.2-2.2,2.2h-3.6L32.6,61.8z"/>
		<polygon class="st0" points="41.5,62.4 41.5,52.7 47.9,52.7 47.9,54 42.9,54 42.9,56.7 47.5,56.7 47.5,58 42.9,58 42.9,61.1 
			47.9,61.1 47.9,62.4 		"/>
		<path class="st0" d="M49.7,60.1v-1.6h1.4v1.7c0,0.5,0.3,0.8,0.8,0.8H54c0.5,0,0.8-0.3,0.8-0.8V54h-3v-1.3h4.4v7.5
			c0,1.5-0.7,2.2-2.2,2.2h-2.1C50.4,62.4,49.7,61.6,49.7,60.1"/>
		<path class="st0" d="M58.8,60.1v-7.5h1.4v7.6c0,0.5,0.3,0.8,0.8,0.8H64c0.5,0,0.8-0.3,0.8-0.8v-7.6h1.4v7.5c0,1.5-0.7,2.2-2.2,2.2
			h-3C59.5,62.4,58.8,61.6,58.8,60.1"/>
		<path class="st0" d="M70.3,57.4h3.2c0.5,0,0.8-0.3,0.8-0.8v-1.8c0-0.5-0.3-0.8-0.8-0.8h-3.2V57.4z M68.8,62.4v-9.7h4.6
			c1.5,0,2.2,0.7,2.2,2.2v1.6c0,1.2-0.5,1.9-1.5,2.1l1.8,3.4l-0.2,0.3h-1.2l-1.9-3.7h-2.4v3.7H68.8z"/>
	</g>
	<g>
		<polygon class="st0" points="59.9,26.5 49.8,26.6 49.8,26.6 32.3,26.6 34.9,22.5 57.5,22.5 54.9,17.9 32.5,17.9 29.9,22.5 
			27.5,26.6 26.2,28.7 27.4,31.2 44.7,31.2 42.1,35.7 25.1,35.7 21.2,29 30,13.9 52.6,13.9 50.1,9.5 27.1,9.5 18.4,24.3 15.9,28.7 
			22.4,39.7 24.7,39.7 45.2,39.8 50.1,31.2 54.9,31.2 47.5,44 24.9,44 27.8,48.5 50,48.5 60.1,31.2 60.1,31.2 61.4,28.9 		"/>
	</g>
	<g>
		<path class="st0" d="M1.6,66.8v-1.5c0-0.4,0.2-0.6,0.6-0.6h1.1l0.2,0.1V65H2.2C2,65,2,65.1,2,65.3v1.5C2,67,2,67.1,2.2,67.1h1.3
			v0.2l-0.2,0.1H2.2C1.8,67.4,1.6,67.2,1.6,66.8"/>
		<path class="st0" d="M4.7,66.8c0,0.2,0.1,0.3,0.3,0.3h0.9c0.2,0,0.3-0.1,0.3-0.3v-1.5C6.1,65.1,6,65,5.8,65H4.9
			c-0.2,0-0.3,0.1-0.3,0.3V66.8z M4.3,66.8v-1.5c0-0.4,0.2-0.6,0.6-0.6h0.9c0.4,0,0.6,0.2,0.6,0.6v1.5c0,0.4-0.2,0.6-0.6,0.6H4.9
			C4.5,67.4,4.3,67.2,4.3,66.8"/>
		<polygon class="st0" points="7.4,67.4 7.4,64.7 7.9,64.7 8.8,66.6 9.7,64.7 10.1,64.7 10.1,67.4 9.8,67.4 9.8,65.2 8.9,67 8.6,67 
			7.8,65.2 7.8,67.4 		"/>
		<path class="st0" d="M11.5,66.1h0.9c0.2,0,0.3-0.1,0.3-0.3v-0.6c0-0.2-0.1-0.3-0.3-0.3h-0.9V66.1z M11.1,67.4v-2.6h1.3
			c0.4,0,0.6,0.2,0.6,0.6v0.5c0,0.4-0.2,0.6-0.6,0.6h-0.9v1H11.1z"/>
		<path class="st0" d="M14.1,66.4h1L14.7,65h-0.1L14.1,66.4z M13.5,67.3l0.9-2.6h0.5l0.9,2.6l0,0.1h-0.3l-0.2-0.7H14l-0.2,0.7
			L13.5,67.3L13.5,67.3z"/>
		<path class="st0" d="M17,64.3l0.2-0.2c0.1-0.1,0.1-0.1,0.2-0.1c0.1,0,0.1,0,0.2,0.1l0.1,0.1c0,0,0,0,0.1,0s0,0,0.1,0l0.2-0.2
			l0.1,0.1L18,64.4c-0.1,0.1-0.1,0.1-0.2,0.1c-0.1,0-0.1,0-0.2-0.1l-0.1-0.1c0,0,0,0-0.1,0c0,0,0,0-0.1,0l-0.2,0.2L17,64.3z
			 M16.6,67.4v-2.6h0.4l1.4,2.1v-2.1h0.3v2.6h-0.4l-1.4-2.1v2.1H16.6z"/>
		<rect x="19.7" y="64.7" class="st0" width="0.3" height="2.6"/>
		<path class="st0" d="M21.5,66.4h1L22,65h-0.1L21.5,66.4z M20.8,67.3l0.9-2.6h0.5l0.9,2.6l0,0.1h-0.3l-0.2-0.7h-1.2l-0.2,0.7
			L20.8,67.3L20.8,67.3z"/>
		<path class="st0" d="M25.5,67.1h0.7c0.4,0,0.6-0.2,0.6-0.6v-0.8c0-0.4-0.2-0.6-0.6-0.6h-0.7V67.1z M25.2,67.4v-2.6h1
			c0.6,0,1,0.3,1,1v0.7c0,0.6-0.3,1-1,1H25.2z"/>
		<polygon class="st0" points="28.2,67.4 28.2,64.7 29.9,64.7 29.9,65 28.5,65 28.5,65.8 29.8,65.8 29.8,66.1 28.5,66.1 28.5,67.1 
			29.9,67.1 29.9,67.4 		"/>
		<path class="st0" d="M32,67.2v-0.2h1.2c0.2,0,0.3-0.1,0.3-0.3v-0.3c0-0.1-0.1-0.2-0.2-0.3l-0.8-0.2C32.1,66,32,65.8,32,65.5v-0.2
			c0-0.4,0.2-0.6,0.6-0.6h0.9l0.2,0.1V65h-1.1c-0.2,0-0.3,0.1-0.3,0.3v0.3c0,0.1,0.1,0.2,0.2,0.3l0.8,0.2c0.3,0.1,0.4,0.2,0.4,0.6
			v0.3c0,0.4-0.2,0.6-0.6,0.6h-1L32,67.2z"/>
		<polygon class="st0" points="34.7,67.4 34.7,64.7 36.4,64.7 36.4,65 35,65 35,65.8 36.3,65.8 36.3,66.1 35,66.1 35,67.1 
			36.4,67.1 36.4,67.4 		"/>
		<path class="st0" d="M37.3,66.8v-1.5c0-0.4,0.2-0.6,0.6-0.6H39l0.2,0.1V65h-1.3c-0.2,0-0.3,0.1-0.3,0.3v1.5c0,0.2,0.1,0.3,0.3,0.3
			H39v-0.9h-0.7v-0.3h1v1.5h-1.4C37.5,67.4,37.3,67.2,37.3,66.8"/>
		<path class="st0" d="M40.3,66.8v-2.1h0.3v2.1c0,0.2,0.1,0.3,0.3,0.3h0.8c0.2,0,0.3-0.1,0.3-0.3v-2.1h0.3v2.1
			c0,0.4-0.2,0.6-0.6,0.6h-0.8C40.5,67.4,40.3,67.2,40.3,66.8"/>
		<path class="st0" d="M43.6,66h0.9c0.2,0,0.3-0.1,0.3-0.3v-0.5c0-0.2-0.1-0.3-0.3-0.3h-0.9V66z M43.3,67.4v-2.6h1.3
			c0.4,0,0.6,0.2,0.6,0.6v0.4c0,0.3-0.1,0.5-0.4,0.6l0.5,1l0,0.1h-0.3l-0.5-1h-0.7v1H43.3z"/>
		<rect x="46.1" y="64.7" class="st0" width="0.3" height="2.6"/>
		<path class="st0" d="M47.8,67.1h0.7c0.4,0,0.6-0.2,0.6-0.6v-0.8c0-0.4-0.2-0.6-0.6-0.6h-0.7V67.1z M47.5,67.4v-2.6h1
			c0.6,0,1,0.3,1,1v0.7c0,0.6-0.3,1-1,1H47.5z"/>
		<path class="st0" d="M50.9,66.4h1L51.4,65h-0.1L50.9,66.4z M50.2,67.3l0.9-2.6h0.5l0.9,2.6l0,0.1h-0.3L52,66.7h-1.2l-0.2,0.7
			L50.2,67.3L50.2,67.3z"/>
		<path class="st0" d="M53.6,67.1h0.7c0.4,0,0.6-0.2,0.6-0.6v-0.8c0-0.4-0.2-0.6-0.6-0.6h-0.7V67.1z M53.3,67.4v-2.6h1
			c0.6,0,1,0.3,1,1v0.7c0,0.6-0.3,1-1,1H53.3z"/>
		<path class="st0" d="M57.5,66.8v-0.4h0.3v0.4c0,0.2,0.1,0.3,0.3,0.3h0.6c0.2,0,0.3-0.1,0.3-0.3V65H58v-0.3h1.2v2.1
			c0,0.4-0.2,0.6-0.6,0.6H58C57.7,67.4,57.5,67.2,57.5,66.8"/>
		<path class="st0" d="M60.2,66.8v-2.1h0.3v2.1c0,0.2,0.1,0.3,0.3,0.3h0.8c0.2,0,0.3-0.1,0.3-0.3v-2.1h0.3v2.1
			c0,0.4-0.2,0.6-0.6,0.6h-0.8C60.4,67.4,60.2,67.2,60.2,66.8"/>
		<path class="st0" d="M63.6,66h0.9c0.2,0,0.3-0.1,0.3-0.3v-0.5c0-0.2-0.1-0.3-0.3-0.3h-0.9V66z M63.3,67.4v-2.6h1.3
			c0.4,0,0.6,0.2,0.6,0.6v0.4c0,0.3-0.1,0.5-0.4,0.6l0.5,1l0,0.1h-0.3l-0.5-1h-0.7v1H63.3z"/>
		<rect x="66.1" y="64.7" class="st0" width="0.3" height="2.6"/>
		<path class="st0" d="M67.8,67.1h0.7c0.4,0,0.6-0.2,0.6-0.6v-0.8c0-0.4-0.2-0.6-0.6-0.6h-0.7V67.1z M67.5,67.4v-2.6h1
			c0.6,0,1,0.3,1,1v0.7c0,0.6-0.3,1-1,1H67.5z"/>
		<rect x="70.5" y="64.7" class="st0" width="0.3" height="2.6"/>
		<path class="st0" d="M71.8,66.8v-1.5c0-0.4,0.2-0.6,0.6-0.6h1.1l0.2,0.1V65h-1.3c-0.2,0-0.3,0.1-0.3,0.3v1.5
			c0,0.2,0.1,0.3,0.3,0.3h1.3v0.2l-0.2,0.1h-1.1C72,67.4,71.8,67.2,71.8,66.8"/>
		<path class="st0" d="M74.9,66.4h1L75.5,65h-0.1L74.9,66.4z M74.3,67.3l0.9-2.6h0.5l0.9,2.6l0,0.1h-0.3L76,66.7h-1.2l-0.2,0.7
			L74.3,67.3L74.3,67.3z"/>
		<polygon class="st0" points="66.2,64.3 66.6,63.9 66.7,64 66.3,64.5 		"/>
	</g>
</g>
</svg>
