<?xml version="1.0" encoding="utf-8"?>
<!-- Generator: Adobe Illustrator 22.0.1, SVG Export Plug-In . SVG Version: 6.00 Build 0)  -->
<svg version="1.1" id="OBJECTS" xmlns="http://www.w3.org/2000/svg" xmlns:xlink="http://www.w3.org/1999/xlink" x="0px" y="0px"
	 viewBox="0 0 143.9 40.9" style="enable-background:new 0 0 143.9 40.9;" xml:space="preserve">
<style type="text/css">
	.st0{fill:#FFFFFF;stroke:#FFFFFF;stroke-width:0.15;stroke-miterlimit:10;}
	.st1{fill:#FFFFFF;}
</style>
<polygon class="st0" points="40.4,18.2 32.1,18.4 32.1,18.4 18.1,18.4 20.1,15.1 38.5,15.1 36.4,11.4 18.2,11.4 16.1,15.1 
	14.1,18.4 13.1,20.1 14.1,22.2 28.1,22.2 26,25.8 12.2,25.8 9.1,20.4 16.2,8.1 34.5,8.1 32.4,4.6 13.8,4.6 6.8,16.6 4.8,20.1 
	8.1,25.8 8.1,25.8 8.1,25.8 10,29 12,29 12,29 28.5,29.1 32.5,22.1 32.5,22.1 36.3,22.1 30.4,32.5 12.1,32.6 14.5,36.3 32.4,36.2 
	40.5,22 40.5,22 41.6,20.2 "/>
<g>
	<path class="st1" d="M46.3,21.5V15c0-1.8,0.9-2.8,2.7-2.8h4.9l0.9,0.7v0.9h-5.7c-0.7,0-1,0.3-1,1v6.9c0,0.7,0.3,1,1,1h5.7v0.9
		l-0.9,0.7H49C47.2,24.2,46.3,23.3,46.3,21.5z"/>
	<path class="st1" d="M57.4,21.5V15c0-1.8,0.9-2.8,2.7-2.8h4.1c1.8,0,2.8,0.9,2.8,2.8v6.5c0,1.8-0.9,2.8-2.8,2.8h-4.1
		C58.3,24.2,57.4,23.3,57.4,21.5z M59.2,21.6c0,0.7,0.3,1,1,1h4c0.7,0,1-0.3,1-1v-6.9c0-0.7-0.3-1-1-1h-4c-0.7,0-1,0.3-1,1
		C59.2,14.7,59.2,21.6,59.2,21.6z"/>
	<path class="st1" d="M70.2,24.2V12.1h2.3l3.9,8.3l3.9-8.3h2.3v12.1h-1.8V15l-3.5,7.5h-1.7L72,15v9.2H70.2z"/>
	<path class="st1" d="M85.4,23.5v-0.9h5.4c0.7,0,1-0.3,1-1v-1.4c0-0.6-0.3-0.9-0.8-1l-3.7-0.7c-1.3-0.3-2-1.1-2-2.7v-0.9
		c0-1.8,0.9-2.8,2.7-2.8h4.2l0.9,0.7v0.9H88c-0.7,0-1,0.3-1,1v1.2c0,0.6,0.3,0.9,0.8,1l3.7,0.7c1.3,0.3,2,1.2,2,2.7v1.2
		c0,1.8-0.9,2.8-2.8,2.8h-4.5L85.4,23.5z"/>
	<path class="st1" d="M96.5,24.2V12.1h8v1.6h-6.2v3.4h5.7v1.6h-5.7v3.9h6.2v1.6H96.5z"/>
	<path class="st1" d="M106.7,21.5v-2h1.8v2.2c0,0.7,0.3,1,1,1h2.6c0.7,0,1-0.3,1-1v-7.9h-3.8v-1.6h5.5v9.3c0,1.8-0.9,2.8-2.8,2.8
		h-2.7C107.6,24.2,106.7,23.3,106.7,21.5z"/>
	<path class="st1" d="M118.1,21.5v-9.3h1.8v9.5c0,0.7,0.3,1,1,1h3.7c0.7,0,1-0.3,1-1v-9.5h1.8v9.3c0,1.8-0.9,2.8-2.8,2.8h-3.7
		C119,24.2,118.1,23.3,118.1,21.5z"/>
	<path class="st1" d="M130.6,24.2V12.1h5.8c1.8,0,2.8,0.9,2.8,2.8v1.9c0,1.5-0.6,2.4-1.9,2.7l2.2,4.3l-0.2,0.4h-1.5l-2.3-4.6h-3v4.6
		C132.5,24.2,130.6,24.2,130.6,24.2z M132.4,18h4c0.7,0,1-0.3,1-1v-2.2c0-0.7-0.3-1-1-1h-4V18z"/>
</g>
<g>
	<path class="st1" d="M46.7,29.7v-1.8c0-0.5,0.2-0.7,0.7-0.7h1.3l0.2,0.2v0.2h-1.6c-0.2,0-0.3,0.1-0.3,0.3v1.9
		c0,0.2,0.1,0.3,0.3,0.3H49v0.2l-0.2,0.2h-1.3C46.9,30.5,46.7,30.2,46.7,29.7z"/>
	<path class="st1" d="M50.1,29.7v-1.8c0-0.5,0.2-0.7,0.7-0.7h1.1c0.5,0,0.7,0.2,0.7,0.7v1.8c0,0.5-0.2,0.7-0.7,0.7h-1.1
		C50.3,30.5,50.1,30.2,50.1,29.7z M50.5,29.8c0,0.2,0.1,0.3,0.3,0.3h1.1c0.2,0,0.3-0.1,0.3-0.3v-1.9c0-0.2-0.1-0.3-0.3-0.3h-1.1
		c-0.2,0-0.3,0.1-0.3,0.3V29.8z"/>
	<path class="st1" d="M53.9,30.5v-3.3h0.5l1.1,2.4l1.1-2.4h0.5v3.3h-0.4v-2.7l-1,2.2h-0.4l-1-2.2v2.7H53.9z"/>
	<path class="st1" d="M58.6,30.5v-3.3h1.6c0.5,0,0.7,0.2,0.7,0.7v0.6c0,0.5-0.2,0.7-0.7,0.7H59v1.2L58.6,30.5L58.6,30.5z M59,28.9
		h1.2c0.2,0,0.3-0.1,0.3-0.3v-0.7c0-0.2-0.1-0.3-0.3-0.3H59V28.9z"/>
	<path class="st1" d="M61.5,30.4l1.1-3.2h0.7l1.1,3.2l-0.1,0.1H64l-0.3-0.8h-1.5l-0.3,0.8L61.5,30.4L61.5,30.4z M62.3,29.3h1.3
		L63,27.5h-0.1L62.3,29.3z"/>
	<path class="st1" d="M65.4,30.5v-3.3h0.4l1.7,2.7v-2.7h0.4v3.3h-0.4l-1.7-2.7v2.7H65.4z M65.9,26.7l0.3-0.3
		c0.1-0.1,0.2-0.1,0.2-0.1s0.2,0,0.2,0.1l0.2,0.2h0.1H67l0.2-0.2l0.2,0.2l-0.3,0.3C67,27,66.9,27,66.9,27s-0.2,0-0.2-0.1l-0.2-0.2
		h-0.1h-0.1l-0.2,0.2L65.9,26.7z"/>
	<path class="st1" d="M69.3,30.5v-3.3h0.4v3.3H69.3z"/>
	<path class="st1" d="M70.7,30.4l1.1-3.2h0.7l1.1,3.2l-0.1,0.1h-0.3l-0.3-0.8h-1.5l-0.3,0.8L70.7,30.4L70.7,30.4z M71.4,29.3h1.3
		l-0.6-1.7H72L71.4,29.3z"/>
	<path class="st1" d="M76.1,30.5v-3.3h1.3c0.8,0,1.2,0.4,1.2,1.2v0.9c0,0.8-0.4,1.2-1.2,1.2C77.4,30.5,76.1,30.5,76.1,30.5z
		 M76.5,30.1h0.9c0.5,0,0.8-0.3,0.8-0.8v-1c0-0.5-0.3-0.8-0.8-0.8h-0.9V30.1z"/>
	<path class="st1" d="M79.8,30.5v-3.3H82v0.4h-1.7v1h1.6V29h-1.6v1.2H82v0.4h-2.2V30.5z"/>
	<path class="st1" d="M84.6,30.3v-0.2h1.5c0.2,0,0.3-0.1,0.3-0.3v-0.4c0-0.2-0.1-0.3-0.2-0.3l-1-0.2c-0.4-0.1-0.5-0.3-0.5-0.7v-0.3
		c0-0.5,0.2-0.7,0.7-0.7h1.2l0.2,0.2v0.2h-1.4c-0.2,0-0.3,0.1-0.3,0.3v0.3c0,0.2,0.1,0.3,0.2,0.3l1,0.2c0.3,0.1,0.5,0.3,0.5,0.7v0.3
		c0,0.5-0.2,0.7-0.7,0.7h-1.3L84.6,30.3z"/>
	<path class="st1" d="M88,30.5v-3.3h2.1v0.4h-1.7v1H90V29h-1.6v1.2h1.7v0.4H88V30.5z"/>
	<path class="st1" d="M91.2,29.7v-1.8c0-0.5,0.2-0.7,0.7-0.7h1.4l0.2,0.2v0.2H92c-0.2,0-0.3,0.1-0.3,0.3v1.9c0,0.2,0.1,0.3,0.3,0.3
		h1.4v-1.2h-0.8v-0.4h1.2v1.9H92C91.5,30.5,91.2,30.2,91.2,29.7z"/>
	<path class="st1" d="M94.9,29.7v-2.6h0.4v2.6c0,0.2,0.1,0.3,0.3,0.3h1c0.2,0,0.3-0.1,0.3-0.3v-2.6h0.4v2.6c0,0.5-0.2,0.7-0.7,0.7
		h-1C95.2,30.5,94.9,30.2,94.9,29.7z"/>
	<path class="st1" d="M98.7,30.5v-3.3h1.6c0.5,0,0.7,0.2,0.7,0.7v0.5c0,0.4-0.2,0.7-0.5,0.7l0.6,1.2l-0.1,0.1h-0.3l-0.7-1.3h-0.9
		v1.3L98.7,30.5L98.7,30.5z M99.1,28.8h1.2c0.2,0,0.3-0.1,0.3-0.3v-0.6c0-0.2-0.1-0.3-0.3-0.3h-1.2V28.8z"/>
	<path class="st1" d="M102.3,30.5v-3.3h0.4v3.3H102.3z"/>
	<path class="st1" d="M104,30.5v-3.3h1.3c0.8,0,1.2,0.4,1.2,1.2v0.9c0,0.8-0.4,1.2-1.2,1.2C105.3,30.5,104,30.5,104,30.5z
		 M104.4,30.1h0.9c0.5,0,0.8-0.3,0.8-0.8v-1c0-0.5-0.3-0.8-0.8-0.8h-0.9V30.1z"/>
	<path class="st1" d="M107.4,30.4l1.1-3.2h0.7l1.1,3.2l-0.1,0.1h-0.3l-0.3-0.8H108l-0.3,0.8L107.4,30.4L107.4,30.4z M108.2,29.3h1.3
		l-0.6-1.7h-0.1L108.2,29.3z"/>
	<path class="st1" d="M111.2,30.5v-3.3h1.3c0.8,0,1.2,0.4,1.2,1.2v0.9c0,0.8-0.4,1.2-1.2,1.2C112.5,30.5,111.2,30.5,111.2,30.5z
		 M111.6,30.1h0.9c0.5,0,0.8-0.3,0.8-0.8v-1c0-0.5-0.3-0.8-0.8-0.8h-0.9V30.1z"/>
	<path class="st1" d="M116.4,29.7v-0.5h0.4v0.6c0,0.2,0.1,0.3,0.3,0.3h0.7c0.2,0,0.3-0.1,0.3-0.3v-2.2H117v-0.4h1.5v2.6
		c0,0.5-0.2,0.7-0.7,0.7h-0.7C116.6,30.5,116.4,30.2,116.4,29.7z"/>
	<path class="st1" d="M119.9,29.7v-2.6h0.4v2.6c0,0.2,0.1,0.3,0.3,0.3h1c0.2,0,0.3-0.1,0.3-0.3v-2.6h0.4v2.6c0,0.5-0.2,0.7-0.7,0.7
		h-1C120.1,30.5,119.9,30.2,119.9,29.7z"/>
	<path class="st1" d="M123.7,30.5v-3.3h1.6c0.5,0,0.7,0.2,0.7,0.7v0.5c0,0.4-0.2,0.7-0.5,0.7l0.6,1.2l-0.1,0.1h-0.3l-0.7-1.3h-0.9
		v1.3L123.7,30.5L123.7,30.5z M124.1,28.8h1.2c0.2,0,0.3-0.1,0.3-0.3v-0.6c0-0.2-0.1-0.3-0.3-0.3h-1.2V28.8z"/>
	<path class="st1" d="M127.1,26.8l0.6-0.7l0.2,0.2l-0.7,0.7L127.1,26.8z M127.2,30.5v-3.3h0.4v3.3H127.2z"/>
	<path class="st1" d="M128.9,30.5v-3.3h1.3c0.8,0,1.2,0.4,1.2,1.2v0.9c0,0.8-0.4,1.2-1.2,1.2C130.2,30.5,128.9,30.5,128.9,30.5z
		 M129.3,30.1h0.9c0.5,0,0.8-0.3,0.8-0.8v-1c0-0.5-0.3-0.8-0.8-0.8h-0.9V30.1z"/>
	<path class="st1" d="M132.7,30.5v-3.3h0.4v3.3H132.7z"/>
	<path class="st1" d="M134.3,29.7v-1.8c0-0.5,0.2-0.7,0.7-0.7h1.3l0.2,0.2v0.2h-1.6c-0.2,0-0.3,0.1-0.3,0.3v1.9
		c0,0.2,0.1,0.3,0.3,0.3h1.6v0.2l-0.2,0.2H135C134.6,30.5,134.3,30.2,134.3,29.7z"/>
	<path class="st1" d="M137.4,30.4l1.1-3.2h0.7l1.1,3.2l-0.1,0.1h-0.3l-0.3-0.8h-1.5l-0.3,0.8L137.4,30.4L137.4,30.4z M138.2,29.3
		h1.3l-0.6-1.7h-0.1L138.2,29.3z"/>
</g>
</svg>
